<svg xmlns="http://www.w3.org/2000/svg" viewBox="0 0 35.179 10.782">
  <defs>
    <style>
      .cls-1 {
        fill: #fff;
      }
    </style>
  </defs>
  <path id="visa" class="cls-1" d="M25.571,8.763a7.316,7.316,0,0,0-2.55-.441c-2.814,0-4.8,1.419-4.815,3.452-.018,1.5,1.413,2.336,2.493,2.838,1.11.513,1.48.835,1.478,1.3-.007.7-.887,1.016-1.7,1.016a6.025,6.025,0,0,1-2.684-.55l-.35-.163-.4,2.342a9.525,9.525,0,0,0,3.188.55c2.992,0,4.947-1.409,4.97-3.575.023-1.192-.748-2.1-2.376-2.841-.988-.484-1.6-.808-1.6-1.3,0-.434.526-.9,1.626-.9a5.218,5.218,0,0,1,2.133.4l.264.119.4-2.263-.069.015Zm7.3-.249h-2.2a1.423,1.423,0,0,0-1.5.866l-4.229,9.577h2.992l.6-1.568,3.65,0c.089.366.352,1.565.352,1.565h2.637l-2.3-10.444ZM14.159,8.426h2.848l-1.781,10.45H12.377L14.159,8.423ZM6.92,14.185l.3,1.451L10,8.514h3.018L8.534,18.943H5.523L3.061,10.11A.583.583,0,0,0,2.8,9.763,12.036,12.036,0,0,0,0,8.727l.037-.22H4.626a1.193,1.193,0,0,1,1.294.885l1,4.8v0Zm22.438,1.066,1.136-2.923c-.015.029.235-.6.378-1l.195.9.658,3.015H29.358v0Z" transform="translate(0 -8.322)"/>
</svg>
